<svg xmlns="http://www.w3.org/2000/svg" viewBox="0 0 80 80">
  <rect width="80" height="80" rx="18" fill="#20b2aa"/>
  <g fill="#fff">
    <path d="M42.69,34.27h10.44c.4,0,2.21,1.3,2.42,1.92,2.06,6.05-7.99,4.43-11.43,4.56v4.33c2.81.39,9.77-1.04,11.57,1.22.6.75,6.93,17.02,6.98,17.99.15,3.13-3.63,4.85-6.32,3.49-2.21-1.12-4.26-12.02-6.46-14.43-8.86-1.52-14.47,3.21-16.5-7.99-.68-3.72-2.06-14.54-1.88-17.95.27-5.1,6.23-7.24,9.42-3.27,2.09,2.6,1.75,7.01,1.75,10.14Z"/>
    <path d="M34.58,7.75c7.96-1.64,10.11,11.16,1.82,11.97-7.34.72-9.04-10.48-1.82-11.97Z"/>
    <path d="M36.42,72.4c-10.88,0-19.73-8.85-19.73-19.73,0-6.48,3.18-12.55,8.52-16.24.73-.51,1.74-.33,2.25.41.51.74.33,1.74-.41,2.25-4.46,3.08-7.12,8.16-7.12,13.57,0,9.09,7.4,16.49,16.49,16.49,4.16,0,8.13-1.55,11.18-4.37.66-.61,1.68-.56,2.29.09.61.66.57,1.68-.09,2.29-3.65,3.37-8.4,5.23-13.37,5.23Z"/>
  </g>
</svg>
