<?xml version="1.0" encoding="UTF-8"?>
<svg id="_レイヤー_1" data-name="レイヤー_1" xmlns="http://www.w3.org/2000/svg" version="1.1" viewBox="0 0 24 24">
  <!-- Generator: Adobe Illustrator 29.8.5, SVG Export Plug-In . SVG Version: 2.1.1 Build 2)  -->
  <defs>
    <style>
      .st0 {
        fill: #fff;
      }
    </style>
  </defs>
  <path class="st0" d="M8.99,6.46v5.29h8.66c.37,2.4-4.34,3.1-3.62,5.3.16.5,1.02,1.04.89,1.76h-5.78c-.14-.98,1.18-3.51.66-4.23-.92-.38-1.67-.08-2.57-.67-.51-.34-1.29-1.48-1.29-2.07v-5.13l.24-.24h2.81Z"/>
  <path class="st0" d="M17.66,10.79h-7.54v-.96h6.98c.08,0,.53.61.56.73v.24Z"/>
  <polygon class="st0" points="8.99 5.02 8.99 5.66 6.18 5.66 5.95 5.42 6.18 5.02 8.99 5.02"/>
</svg>